<?xml version="1.0" encoding="UTF-8"?>
<svg id="Layer_2" data-name="Layer 2" xmlns="http://www.w3.org/2000/svg" width="195.99" height="195.99" viewBox="0 0 195.99 195.99">
  <circle cx="97.99" cy="97.99" r="95.99" fill="#fff" stroke="#000" stroke-miterlimit="10" stroke-width="4"/>
  <path d="M153.27,63.33h-2.03v-5.83c0-.7-.4-1.33-1.03-1.62-16.58-7.81-35.56-7.92-52.22-.35-16.66-7.57-35.64-7.46-52.23.35-.62.29-1.02.92-1.02,1.62v5.83h-2.03c-3.08,0-5.6,2.51-5.6,5.6v62.9c0,3.09,2.52,5.6,5.6,5.6h110.56c3.08,0,5.59-2.51,5.59-5.6v-62.9c0-3.09-2.51-5.6-5.59-5.6ZM99.78,58.64c15.28-6.84,32.6-6.84,47.89,0v6.48h0v58.25c-7.68-3.21-15.82-4.82-23.95-4.82s-16.26,1.61-23.94,4.82V58.64ZM88.34,55.78c2.67.76,5.29,1.71,7.86,2.86v27.92l-2.94-1.96c-.6-.4-1.38-.4-1.98,0l-2.94,1.96v-30.78ZM90.48,133.86h-47.77c-1.11,0-2.02-.91-2.02-2.03v-62.9c0-1.12.91-2.02,2.02-2.02h2.03v61.11c0,.99.8,1.79,1.79,1.79h43.95v4.05ZM50.76,126.23c13.85-5.46,29.15-5.46,42.99,0h-42.99ZM101.92,133.86h-7.86v-4.05h7.86v4.05ZM145.21,126.23h-42.98c13.84-5.46,29.14-5.46,42.98,0ZM155.29,131.83c0,1.12-.91,2.03-2.02,2.03h-47.78v-4.05h43.96c.99,0,1.79-.8,1.79-1.79v-61.11h2.03c1.11,0,2.02.9,2.02,2.02v62.9ZM84.77,89.9c0,.66.36,1.26.94,1.57s1.29.28,1.83-.09l4.73-3.15,3.93,2.62v32.52c-7.68-3.21-15.81-4.82-23.94-4.82s-16.27,1.61-23.95,4.82v-58.25h0v-6.48c11.57-5.18,24.32-6.43,36.46-3.77v35.03Z"/>
</svg>